# xmcd
#
# Track frame offsets:
#	150
#	12065
#	27037
#	37450
#	48000
#	59932
#	70155
#	82457
#	92820
#	105932
#	119632
#	136407
#	147852
#	160920
#	168992
#	180157
#	190247
#	202657
#	216535
#	229700
#
# Disc length: 3266 seconds
#
# Revision: 0
# Processed by: cddbd v1.4PL0 Copyright (c) Steve Scherf et al.
# Submitted via: EZCDDA 4.3.3.2
#
DISCID=1c0cc014
DTITLE=Mickey Gilley - Hits, Honkey Tonks And More
DYEAR=1900
DGENRE=
TTITLE0=That's All That Matters To Me
TTITLE1=Fool For Your Love
TTITLE2=You Never Cross My Mind
TTITLE3=She Called Me Baby
TTITLE4=Welcome To My World
TTITLE5=What Am I Living For
TTITLE6=Make The World Go Away
TTITLE7=Lonely Wine
TTITLE8=Giving Up On Getting Over You
TTITLE9=Crazy Arms
TTITLE10=C. C. Rider
TTITLE11=Honkey Tonk Wine
TTITLE12=Object Of My Affection
TTITLE13=Great Balls Of Fire
TTITLE14=Breathless
TTITLE15=I Am The #1 Rock n' Roll
TTITLE16=Don't Break Up With Me
TTITLE17=Rockin' My Life Away
TTITLE18=They Never Made It To Memphis
TTITLE19=Quitting Time
EXTD=
EXTT0=
EXTT1=
EXTT2=
EXTT3=
EXTT4=
EXTT5=
EXTT6=
EXTT7=
EXTT8=
EXTT9=
EXTT10=
EXTT11=
EXTT12=
EXTT13=
EXTT14=
EXTT15=
EXTT16=
EXTT17=
EXTT18=
EXTT19=
PLAYORDER=
